<svg xmlns="http://www.w3.org/2000/svg" viewBox="0 0 500 247.03" preserveAspectRatio="xMinYMin meet">
  <title>The Unarmed Truth</title>
  <g>
    <g>
      <path d="M63.35,85.08a8.14,8.14,0,0,0-2,4.55,58.77,58.77,0,0,0-.52,9.13v24.57q0,14.77-4.18,21.59-5.67,9.5-21.89,9.5-12.29,0-19.15-4.92a16.58,16.58,0,0,1-5.2-6,26.5,26.5,0,0,1-2.49-8.31,83.82,83.82,0,0,1-.67-11.54v-32a21.23,21.23,0,0,0-.52-5.6,3.56,3.56,0,0,0-2-2.36A14.08,14.08,0,0,0,0,82.89v-2q5.72.3,17.91.3,12,0,18.26-.3v2a18.07,18.07,0,0,0-5.35.8,3.8,3.8,0,0,0-2.29,2.39,18,18,0,0,0-.62,5.57v41.58A31.73,31.73,0,0,0,29.3,143.7a10,10,0,0,0,4.18,5.5,14,14,0,0,0,7.16,1.64q9.7,0,13.75-6.84t4.05-19.52V100.8A67.92,67.92,0,0,0,57.85,90a7.43,7.43,0,0,0-2.69-4.85q-2.09-1.57-7-2.26v-2q4.18.3,11.44.3,5.37,0,8.46-.3v2A9.5,9.5,0,0,0,63.35,85.08Z" transform="translate(0 -0.49)" fill="#222983"/>
      <path d="M132,94.93a6.14,6.14,0,0,0-2,3.61,38,38,0,0,0-.52,7.39V153q-1.79-.15-3.73-.15T122,153L81.28,106.22v31.88a22.49,22.49,0,0,0,.9,7.31,6.46,6.46,0,0,0,3.21,3.63,23.92,23.92,0,0,0,7.19,1.89v2q-5-.3-12.44-.3-5.37,0-8.46.3v-2a11.86,11.86,0,0,0,4.73-1.87,6,6,0,0,0,2-3.61,38.09,38.09,0,0,0,.52-7.36V101.85a20.34,20.34,0,0,0-.55-5.57,3.64,3.64,0,0,0-2-2.39,14.16,14.16,0,0,0-4.7-.8v-2q3.08.3,8.46.3,8.36,0,14.47-.3l32.53,37.06V105.93a22.7,22.7,0,0,0-.9-7.36A6.36,6.36,0,0,0,123,95a24.71,24.71,0,0,0-7.24-1.87v-2q5.07.3,12.44.3,5.42,0,8.46-.3v2A11,11,0,0,0,132,94.93Z" transform="translate(0 -0.49)" fill="#222983"/>
      <path d="M201.6,150.94v2q-5.22-.3-15-.3-12.34,0-18.16.3v-2a10.32,10.32,0,0,0,4.68-1.07,3.14,3.14,0,0,0,1.54-2.91,11.24,11.24,0,0,0-1.29-4.58l-5-11.59h-19.1q-3.38,8-3.38,12.63,0,4.13,2.46,5.75a13.55,13.55,0,0,0,7,1.77v2q-7.61-.3-13.33-.3-4.78,0-7.86.3v-2a7.59,7.59,0,0,0,4.53-3.06,42.1,42.1,0,0,0,4.87-8.88l20.84-48a26.53,26.53,0,0,0,3.38.2,25.1,25.1,0,0,0,3.38-.2l24.42,53.37Q198.62,150.79,201.6,150.94Zm-42.78-42.23-8.65,20h17.36Z" transform="translate(0 -0.49)" fill="#222983"/>
      <path d="M266.89,153a22.82,22.82,0,0,1-8.73,1.44q-6.57,0-10.17-2.31a10.22,10.22,0,0,1-4.6-6.34l-2.84-11.54a19.5,19.5,0,0,0-1.74-5.89,6,6,0,0,0-2.69-2.74,10.09,10.09,0,0,0-4.13-.72h-1.74v17.31a20.31,20.31,0,0,0,.55,5.57,3.64,3.64,0,0,0,2,2.39,13.88,13.88,0,0,0,4.68.8v2q-6.57-.3-19.05-.3-10.15,0-15.07.3v-2a14.32,14.32,0,0,0,4.75-.8,3.56,3.56,0,0,0,2-2.39,21.26,21.26,0,0,0,.52-5.57V101.85a20.6,20.6,0,0,0-.55-5.62,3.57,3.57,0,0,0-2-2.36,14.64,14.64,0,0,0-4.73-.77v-2q4.92.3,14.47.3,4.48,0,9.9-.1t7.51-.1q29.65,0,29.65,15.67,0,6.57-5.84,11.32t-19.67,6a25.2,25.2,0,0,1,2.64.35q8.51.85,13.48,3.23a11.06,11.06,0,0,1,6.27,7.66l2.14,9a7.4,7.4,0,0,0,1.59,3.48,3.63,3.63,0,0,0,2.69,1,5.71,5.71,0,0,0,3.58-1.44l1.39,1.34A18.93,18.93,0,0,1,266.89,153Zm-24.8-34q2.44-3.9,2.44-11,0-7.46-2.24-11.17t-7.56-3.71a4.63,4.63,0,0,0-2.86.72,4.07,4.07,0,0,0-1.27,2.54,31.74,31.74,0,0,0-.35,5.5v21H233Q239.65,122.84,242.09,118.93Z" transform="translate(0 -0.49)" fill="#222983"/>
      <path d="M355.28,93.89A3.8,3.8,0,0,0,353,96.28a18,18,0,0,0-.62,5.57v40.34a18,18,0,0,0,.62,5.57,3.8,3.8,0,0,0,2.29,2.39,18,18,0,0,0,5.35.8v2q-6-.3-17-.3-13.73,0-20.15.3v-2a18.06,18.06,0,0,0,5.35-.8,3.81,3.81,0,0,0,2.29-2.39,18,18,0,0,0,.62-5.57V97.47l-22.53,56h-1.64L283.92,97.57v40.54a22.49,22.49,0,0,0,.9,7.31,6.46,6.46,0,0,0,3.21,3.63,23.92,23.92,0,0,0,7.19,1.89v2q-5-.3-12.39-.3-5.47,0-8.46.3v-2a11.81,11.81,0,0,0,4.68-1.87,6,6,0,0,0,2-3.61,38.09,38.09,0,0,0,.52-7.36V101.85a18,18,0,0,0-.62-5.57,3.81,3.81,0,0,0-2.29-2.39,18.08,18.08,0,0,0-5.35-.8v-2q6.72.3,20.69.3,5.57,0,9.35-.3l14.47,34.62,13.88-34.32h11.89q11,0,17-.3v2A18.07,18.07,0,0,0,355.28,93.89Z" transform="translate(0 -0.49)" fill="#222983"/>
      <path d="M421.21,138.9q0,5.62.75,14.08-6.62-.3-22.33-.3-22.38,0-33.63.3v-2a14.32,14.32,0,0,0,4.75-.8,3.56,3.56,0,0,0,2-2.39,21.26,21.26,0,0,0,.52-5.57V101.85a20.34,20.34,0,0,0-.55-5.57,3.64,3.64,0,0,0-2-2.39,14.16,14.16,0,0,0-4.7-.8v-2q11.24.3,33.63.3,14.28,0,20.29-.3-.75,7.76-.75,13a42.47,42.47,0,0,0,.35,6.32h-2.39q-2-9.1-6.47-13.06a16.24,16.24,0,0,0-11.24-4h-1.29a9.19,9.19,0,0,0-3,.4,2.88,2.88,0,0,0-1.64,1.54,8.28,8.28,0,0,0-.55,3.43v22h2.34A9.54,9.54,0,0,0,401,119a12.86,12.86,0,0,0,3.81-4.38,19.55,19.55,0,0,0,1.94-5.3h2.34q-.35,3.78-.35,7.81l0,4.63q0,5,.6,12.44h-2.34a14.84,14.84,0,0,0-3.81-8.13,10.51,10.51,0,0,0-8-3.26h-2.34v22.38a8.46,8.46,0,0,0,.55,3.46,2.87,2.87,0,0,0,1.64,1.57,9.17,9.17,0,0,0,3,.4h2.34a16.68,16.68,0,0,0,11.86-4.45q4.75-4.45,6.84-14.6h2.39A60.65,60.65,0,0,0,421.21,138.9Z" transform="translate(0 -0.49)" fill="#222983"/>
      <path d="M440.61,91.4l2.93,0q16.86-.3,18.45-.3,19.05,0,28.53,7.66T500,121.2a28.95,28.95,0,0,1-18,27.86Q473.19,153,461.05,153q-3.08,0-8.73-.15t-8.58-.15q-9.75,0-14.67.3v-2a14.32,14.32,0,0,0,4.75-.8,3.56,3.56,0,0,0,2-2.39,21.26,21.26,0,0,0,.52-5.57V101.85a20.6,20.6,0,0,0-.55-5.62,3.57,3.57,0,0,0-2-2.36,14.64,14.64,0,0,0-4.73-.77v-2Q435.34,91.4,440.61,91.4Zm15.79,56.51a3.8,3.8,0,0,0,1.59,2.51,7,7,0,0,0,3.61.72q6.86,0,10.82-3.33t5.57-9.75a69.21,69.21,0,0,0,1.62-16.46,61.94,61.94,0,0,0-1.74-16.17q-1.74-6.27-5.7-9.4T461.5,92.89a6.78,6.78,0,0,0-3.53.72,3.85,3.85,0,0,0-1.57,2.54,26.25,26.25,0,0,0-.42,5.5v40.74A26.19,26.19,0,0,0,456.4,147.91Z" transform="translate(0 -0.49)" fill="#222983"/>
    </g>
    <g>
      <path d="M1.69,194.14q0-8.9-.7-20.19,9.7.3,33.33.3t33.18-.3q-.7,11.29-.7,20.19a68.92,68.92,0,0,0,.3,7.31H64.76q-3.33-13.38-8.63-19.27t-11.42-5.89h-.1v58.3a16.26,16.26,0,0,0,.87,6.22,4.62,4.62,0,0,0,3.16,2.59,29.27,29.27,0,0,0,7.26.65v2q-14.33-.3-22.33-.3-7.21,0-20.94.3v-2a29.27,29.27,0,0,0,7.26-.65,4.62,4.62,0,0,0,3.16-2.59,16.28,16.28,0,0,0,.87-6.22v-58.3h-.1q-6.22,0-11.47,5.84T3.73,201.45H1.39A68.92,68.92,0,0,0,1.69,194.14Z" transform="translate(0 -0.49)" fill="#222983"/>
      <path d="M136.37,246.07a22.82,22.82,0,0,1-8.73,1.44q-6.57,0-10.17-2.31a10.22,10.22,0,0,1-4.6-6.34L110,227.32a19.5,19.5,0,0,0-1.74-5.89,6,6,0,0,0-2.69-2.74,10.09,10.09,0,0,0-4.13-.72H99.73v17.31a20.31,20.31,0,0,0,.55,5.57,3.64,3.64,0,0,0,2,2.39,13.88,13.88,0,0,0,4.68.8v2q-6.57-.3-19.05-.3-10.15,0-15.07.3v-2a14.32,14.32,0,0,0,4.75-.8,3.56,3.56,0,0,0,2-2.39,21.26,21.26,0,0,0,.52-5.57V194.94a20.6,20.6,0,0,0-.55-5.62,3.57,3.57,0,0,0-2-2.36,14.64,14.64,0,0,0-4.73-.77v-2q4.92.3,14.47.3,4.48,0,9.9-.1t7.51-.1q29.65,0,29.65,15.67,0,6.57-5.84,11.32t-19.67,6a25.2,25.2,0,0,1,2.64.35q8.51.85,13.48,3.23a11.06,11.06,0,0,1,6.27,7.66l2.14,9a7.4,7.4,0,0,0,1.59,3.48,3.63,3.63,0,0,0,2.69,1,5.71,5.71,0,0,0,3.58-1.44l1.39,1.34A18.93,18.93,0,0,1,136.37,246.07Zm-24.8-34q2.44-3.9,2.44-11,0-7.46-2.24-11.17t-7.56-3.71a4.63,4.63,0,0,0-2.86.72,4.07,4.07,0,0,0-1.27,2.54,31.74,31.74,0,0,0-.35,5.5v21h2.74Q109.13,215.93,111.57,212Z" transform="translate(0 -0.49)" fill="#222983"/>
      <path d="M202.67,188.35a7.92,7.92,0,0,0-2.31,4.58,51.54,51.54,0,0,0-.6,9.13v16.41a63.25,63.25,0,0,1-1,12,26.15,26.15,0,0,1-3.21,8.63,17.34,17.34,0,0,1-7.49,6.17,26.32,26.32,0,0,1-11.17,2.29q-12,0-19.15-4.48a22.06,22.06,0,0,1-5.92-5.75,19.5,19.5,0,0,1-2.84-7.36,63.53,63.53,0,0,1-.8-11.17V194.94a20.34,20.34,0,0,0-.55-5.57,3.64,3.64,0,0,0-2-2.39,14.16,14.16,0,0,0-4.7-.8v-2q5.52.3,17.16.3,11,0,17-.3v2a14.33,14.33,0,0,0-4.75.8,3.55,3.55,0,0,0-2,2.36,21.23,21.23,0,0,0-.52,5.6V220.5a60.93,60.93,0,0,0,1,11.94,13.93,13.93,0,0,0,4.05,7.61q3.08,2.88,9.05,2.88,8.51,0,12-6.17t3.48-17.16V204.09a68.44,68.44,0,0,0-.6-10.82,7.45,7.45,0,0,0-2.69-4.87q-2.09-1.57-7-2.21v-2q4.18.3,11.44.3,6.07,0,9.45-.3v2A10.93,10.93,0,0,0,202.67,188.35Z" transform="translate(0 -0.49)" fill="#222983"/>
      <path d="M211.45,199.21q0-6.67-.7-15.07,9.05.3,30.79.3,22.28,0,31.69-.3-.75,8.21-.75,15.07,0,6.12.3,9.35h-2.34a60.71,60.71,0,0,0-4.38-12.93,17.81,17.81,0,0,0-5.67-7,13.45,13.45,0,0,0-7.66-2.16h-.95v47.75a17.69,17.69,0,0,0,.8,6.19,4.64,4.64,0,0,0,2.88,2.71,23.64,23.64,0,0,0,6.62.9v2q-5.57-.3-20.54-.3-14.77,0-19.7.3v-2a23.65,23.65,0,0,0,6.62-.9,4.64,4.64,0,0,0,2.88-2.71,17.71,17.71,0,0,0,.8-6.19V186.48h-.9a13.54,13.54,0,0,0-7.71,2.16,17.8,17.8,0,0,0-5.67,7,60.67,60.67,0,0,0-4.38,12.93h-2.34Q211.45,205.33,211.45,199.21Z" transform="translate(0 -0.49)" fill="#222983"/>
      <path d="M350.6,187a3.55,3.55,0,0,0-2,2.36,21.23,21.23,0,0,0-.52,5.6v40.34a20.31,20.31,0,0,0,.55,5.57,3.63,3.63,0,0,0,2,2.39,14.13,14.13,0,0,0,4.7.8v2q-5.22-.3-16.12-.3-11.79,0-18.06.3v-2a14.32,14.32,0,0,0,4.75-.8,3.56,3.56,0,0,0,2-2.39,21.26,21.26,0,0,0,.52-5.57V215.93H305.51v19.35a20.31,20.31,0,0,0,.55,5.57,3.64,3.64,0,0,0,2,2.39,13.88,13.88,0,0,0,4.68.8v2q-6.22-.3-18-.3-10.89,0-16.12.3v-2a14.32,14.32,0,0,0,4.75-.8,3.56,3.56,0,0,0,2-2.39,21.26,21.26,0,0,0,.52-5.57V194.94a20.34,20.34,0,0,0-.55-5.57,3.64,3.64,0,0,0-2-2.39,14.16,14.16,0,0,0-4.7-.8v-2q5.22.3,16.12.3,11.79,0,18-.3v2a14.07,14.07,0,0,0-4.73.8,3.56,3.56,0,0,0-2,2.36,21.23,21.23,0,0,0-.52,5.6v19h22.93v-19a20.34,20.34,0,0,0-.55-5.57,3.64,3.64,0,0,0-2-2.39,14.16,14.16,0,0,0-4.7-.8v-2q6.27.3,18.06.3,10.89,0,16.12-.3v2A14.33,14.33,0,0,0,350.6,187Z" transform="translate(0 -0.49)" fill="#222983"/>
    </g>
    <g>
      <path d="M.95,21.3q0-6.68-.52-15.15,7.27.22,25,.22T50.3,6.16q-.52,8.47-.52,15.15A51.69,51.69,0,0,0,50,26.79H48.25q-2.5-10-6.47-14.46T33.21,7.91h-.07V51.63a12.2,12.2,0,0,0,.65,4.66,3.46,3.46,0,0,0,2.37,1.94,22,22,0,0,0,5.45.48v1.53Q30.86,60,24.86,60q-5.41,0-15.71.22V58.72a22,22,0,0,0,5.45-.48A3.47,3.47,0,0,0,17,56.3a12.21,12.21,0,0,0,.65-4.66V7.91h-.07q-4.66,0-8.6,4.38T2.47,26.79H.72A51.69,51.69,0,0,0,.95,21.3Z" transform="translate(0 -0.49)" fill="#222983"/>
      <path d="M83.2,19.51q6.08,0,8.62,3.06a8.8,8.8,0,0,1,1.7,3.71,28.37,28.37,0,0,1,.54,6.17v20.7a10.59,10.59,0,0,0,.41,3.32,2.83,2.83,0,0,0,1.32,1.68,5.43,5.43,0,0,0,2.52.48v1.6Q90.11,60,87.64,60q-2.65,0-10.86.3v-1.6a3.82,3.82,0,0,0,2.09-.48A2.8,2.8,0,0,0,80,56.48a12.84,12.84,0,0,0,.34-3.32V28.32a6,6,0,0,0-.9-3.64,3.34,3.34,0,0,0-2.84-1.18,5.43,5.43,0,0,0-2.69.71,5.63,5.63,0,0,0-2.05,2A5.19,5.19,0,0,0,71,29V53.16a12.84,12.84,0,0,0,.34,3.32,2.8,2.8,0,0,0,1.08,1.68,3.82,3.82,0,0,0,2.09.48v1.6Q66.94,60,64.48,60q-2.65,0-11.45.3v-1.6a5.55,5.55,0,0,0,2.54-.48,2.82,2.82,0,0,0,1.34-1.68,10.61,10.61,0,0,0,.41-3.32V9.66a10.23,10.23,0,0,0-1-5.13A3.58,3.58,0,0,0,53,2.95V1.35q2.39.22,4.74.22A67.59,67.59,0,0,0,71,.49V25.26Q74.51,19.51,83.2,19.51Z" transform="translate(0 -0.49)" fill="#222983"/>
      <path d="M115.81,39.4q0,7.35,2.56,10.46A7.8,7.8,0,0,0,124.61,53q5.56,0,9.25-5.11l1.31.48A23.31,23.31,0,0,1,132,54.67a16.25,16.25,0,0,1-5.3,4.79,14.86,14.86,0,0,1-7.54,1.87q-8,0-12.85-5t-4.83-15.87a24.61,24.61,0,0,1,2.54-11.79,16.08,16.08,0,0,1,7-6.94,22.2,22.2,0,0,1,10.17-2.24q14.44,0,14.44,17.12H115.88Q115.81,37.53,115.81,39.4Zm7.78-14.19q-1-3.9-3-3.9t-3.36,3.28q-1.27,3.28-1.64,10.59h8.84A41.08,41.08,0,0,0,123.59,25.2Z" transform="translate(0 -0.49)" fill="#222983"/>
    </g>
  </g>
</svg>
